<mxfile host="app.diagrams.net" modified="2023-10-23T02:00:24.255Z" agent="Mozilla/5.0 (Macintosh; Intel Mac OS X 10_15_7) AppleWebKit/605.1.15 (KHTML, like Gecko) Version/17.0 Safari/605.1.15" etag="nJrcvDgkQboN222Ta-Gg" version="22.0.6" type="google">
  <diagram id="_UQRAhYS3GI2TacrgaCH" name="Page-1">
    <mxGraphModel grid="1" page="1" gridSize="10" guides="1" tooltips="1" connect="1" arrows="1" fold="1" pageScale="1" pageWidth="850" pageHeight="1100" math="0" shadow="0">
      <root>
        <mxCell id="0" />
        <mxCell id="1" parent="0" />
        <mxCell id="kKs4Ao6ciiZ8D5oQtVKW-1" value="Split Order" style="text;html=1;strokeColor=none;fillColor=none;align=center;verticalAlign=middle;whiteSpace=wrap;rounded=0;fontSize=20;" vertex="1" parent="1">
          <mxGeometry x="343" y="-920" width="165" height="30" as="geometry" />
        </mxCell>
        <mxCell id="kKs4Ao6ciiZ8D5oQtVKW-10" value="Yes" style="edgeStyle=orthogonalEdgeStyle;rounded=0;orthogonalLoop=1;jettySize=auto;html=1;entryX=0;entryY=0.5;entryDx=0;entryDy=0;entryPerimeter=0;" edge="1" parent="1">
          <mxGeometry relative="1" as="geometry">
            <mxPoint x="500" y="870" as="targetPoint" />
          </mxGeometry>
        </mxCell>
        <mxCell id="kKs4Ao6ciiZ8D5oQtVKW-50" value="" style="edgeStyle=orthogonalEdgeStyle;rounded=0;orthogonalLoop=1;jettySize=auto;html=1;" edge="1" parent="1">
          <mxGeometry relative="1" as="geometry">
            <mxPoint x="380" y="920" as="sourcePoint" />
          </mxGeometry>
        </mxCell>
        <mxCell id="kKs4Ao6ciiZ8D5oQtVKW-51" value="No" style="edgeLabel;html=1;align=center;verticalAlign=middle;resizable=0;points=[];" connectable="0" vertex="1" parent="kKs4Ao6ciiZ8D5oQtVKW-50">
          <mxGeometry x="-0.3999" y="-3" relative="1" as="geometry">
            <mxPoint as="offset" />
          </mxGeometry>
        </mxCell>
        <mxCell id="kKs4Ao6ciiZ8D5oQtVKW-11" style="edgeStyle=orthogonalEdgeStyle;rounded=0;orthogonalLoop=1;jettySize=auto;html=1;entryX=0;entryY=0.5;entryDx=0;entryDy=0;" edge="1" parent="1">
          <mxGeometry relative="1" as="geometry">
            <mxPoint x="680" y="870" as="targetPoint" />
          </mxGeometry>
        </mxCell>
        <mxCell id="kKs4Ao6ciiZ8D5oQtVKW-14" value="Yes" style="edgeLabel;html=1;align=center;verticalAlign=middle;resizable=0;points=[];" connectable="0" vertex="1" parent="kKs4Ao6ciiZ8D5oQtVKW-11">
          <mxGeometry x="-0.171" relative="1" as="geometry">
            <mxPoint as="offset" />
          </mxGeometry>
        </mxCell>
        <mxCell id="kKs4Ao6ciiZ8D5oQtVKW-42" value="" style="edgeStyle=orthogonalEdgeStyle;rounded=0;orthogonalLoop=1;jettySize=auto;html=1;" edge="1" parent="1">
          <mxGeometry relative="1" as="geometry">
            <mxPoint x="550" y="920" as="sourcePoint" />
          </mxGeometry>
        </mxCell>
        <mxCell id="kKs4Ao6ciiZ8D5oQtVKW-44" value="No" style="edgeLabel;html=1;align=center;verticalAlign=middle;resizable=0;points=[];" connectable="0" vertex="1" parent="kKs4Ao6ciiZ8D5oQtVKW-42">
          <mxGeometry x="-0.2332" y="1" relative="1" as="geometry">
            <mxPoint as="offset" />
          </mxGeometry>
        </mxCell>
        <mxCell id="kKs4Ao6ciiZ8D5oQtVKW-40" value="" style="edgeStyle=orthogonalEdgeStyle;rounded=0;orthogonalLoop=1;jettySize=auto;html=1;" edge="1" parent="1">
          <mxGeometry relative="1" as="geometry">
            <mxPoint x="840" y="870" as="targetPoint" />
          </mxGeometry>
        </mxCell>
        <mxCell id="kKs4Ao6ciiZ8D5oQtVKW-15" value="Start" style="strokeWidth=2;html=1;shape=mxgraph.flowchart.start_1;whiteSpace=wrap;" vertex="1" parent="1">
          <mxGeometry x="374.84" y="-880" width="100" height="60" as="geometry" />
        </mxCell>
        <mxCell id="kKs4Ao6ciiZ8D5oQtVKW-43" value="" style="edgeStyle=orthogonalEdgeStyle;rounded=0;orthogonalLoop=1;jettySize=auto;html=1;" edge="1" parent="1">
          <mxGeometry relative="1" as="geometry">
            <mxPoint x="615" y="1080" as="sourcePoint" />
          </mxGeometry>
        </mxCell>
        <mxCell id="kKs4Ao6ciiZ8D5oQtVKW-37" style="edgeStyle=orthogonalEdgeStyle;rounded=0;orthogonalLoop=1;jettySize=auto;html=1;entryX=0.5;entryY=1;entryDx=0;entryDy=0;entryPerimeter=0;" edge="1" parent="1">
          <mxGeometry relative="1" as="geometry">
            <mxPoint x="1050" y="890" as="targetPoint" />
          </mxGeometry>
        </mxCell>
        <mxCell id="kKs4Ao6ciiZ8D5oQtVKW-57" style="edgeStyle=orthogonalEdgeStyle;rounded=0;orthogonalLoop=1;jettySize=auto;html=1;exitX=0;exitY=1;exitDx=0;exitDy=0;entryX=0.5;entryY=0;entryDx=0;entryDy=0;entryPerimeter=0;" edge="1" parent="1">
          <mxGeometry relative="1" as="geometry">
            <mxPoint x="665" y="1220" as="sourcePoint" />
            <Array as="points">
              <mxPoint x="675" y="1260" />
              <mxPoint x="465" y="1260" />
            </Array>
          </mxGeometry>
        </mxCell>
        <mxCell id="kKs4Ao6ciiZ8D5oQtVKW-60" style="edgeStyle=orthogonalEdgeStyle;rounded=0;orthogonalLoop=1;jettySize=auto;html=1;entryX=0;entryY=0;entryDx=0;entryDy=0;" edge="1" parent="1">
          <mxGeometry relative="1" as="geometry">
            <mxPoint x="380" y="1080" as="sourcePoint" />
          </mxGeometry>
        </mxCell>
        <mxCell id="kKs4Ao6ciiZ8D5oQtVKW-56" value="" style="edgeStyle=orthogonalEdgeStyle;rounded=0;orthogonalLoop=1;jettySize=auto;html=1;exitX=0;exitY=1;exitDx=0;exitDy=0;" edge="1" parent="1">
          <mxGeometry relative="1" as="geometry">
            <mxPoint x="360" y="1220" as="sourcePoint" />
            <Array as="points">
              <mxPoint x="370" y="1255" />
              <mxPoint x="465" y="1255" />
            </Array>
          </mxGeometry>
        </mxCell>
        <mxCell id="-koNussSvOYieeaLm8qZ-1" style="edgeStyle=orthogonalEdgeStyle;rounded=0;orthogonalLoop=1;jettySize=auto;html=1;exitX=1;exitY=0.5;exitDx=0;exitDy=0;entryX=0;entryY=0.5;entryDx=0;entryDy=0;" edge="1" parent="1" source="kKs4Ao6ciiZ8D5oQtVKW-64" target="XB4P97MYB8RGY4QsBkrF-8">
          <mxGeometry relative="1" as="geometry">
            <Array as="points">
              <mxPoint x="1085.75" y="-255" />
            </Array>
          </mxGeometry>
        </mxCell>
        <mxCell id="kKs4Ao6ciiZ8D5oQtVKW-64" value="Remove order to fill and matched order to fill from pending policy order queue" style="rounded=1;whiteSpace=wrap;html=1;absoluteArcSize=1;arcSize=14;strokeWidth=2;" vertex="1" parent="1">
          <mxGeometry x="986.19" y="-290" width="100" height="100" as="geometry" />
        </mxCell>
        <mxCell id="kKs4Ao6ciiZ8D5oQtVKW-65" value="&lt;span style=&quot;border-color: var(--border-color); font-size: 12.000001px;&quot;&gt;Create policy order with matched bet order to fill and order to fill&#39;s&lt;/span&gt;" style="rounded=1;whiteSpace=wrap;html=1;absoluteArcSize=1;arcSize=14;strokeWidth=2;" vertex="1" parent="1">
          <mxGeometry x="986.19" y="-380" width="100" height="100" as="geometry" />
        </mxCell>
        <mxCell id="kKs4Ao6ciiZ8D5oQtVKW-66" value="&lt;br&gt;Pending Policy Order Queue" style="strokeWidth=2;html=1;shape=mxgraph.flowchart.database;whiteSpace=wrap;" vertex="1" parent="1">
          <mxGeometry x="1432.13" y="-270" width="130" height="90" as="geometry" />
        </mxCell>
        <mxCell id="XB4P97MYB8RGY4QsBkrF-23" style="edgeStyle=orthogonalEdgeStyle;rounded=0;orthogonalLoop=1;jettySize=auto;html=1;exitX=1;exitY=0.85;exitDx=0;exitDy=0;exitPerimeter=0;" edge="1" parent="1" source="kKs4Ao6ciiZ8D5oQtVKW-67" target="XB4P97MYB8RGY4QsBkrF-22">
          <mxGeometry relative="1" as="geometry" />
        </mxCell>
        <mxCell id="kKs4Ao6ciiZ8D5oQtVKW-67" value="Matched Policy Order Queue" style="strokeWidth=2;html=1;shape=mxgraph.flowchart.database;whiteSpace=wrap;" vertex="1" parent="1">
          <mxGeometry x="1432.13" y="-330" width="130" height="90" as="geometry" />
        </mxCell>
        <mxCell id="kKs4Ao6ciiZ8D5oQtVKW-70" value="" style="edgeStyle=orthogonalEdgeStyle;rounded=0;orthogonalLoop=1;jettySize=auto;html=1;" edge="1" parent="1" source="kKs4Ao6ciiZ8D5oQtVKW-68" target="kKs4Ao6ciiZ8D5oQtVKW-69">
          <mxGeometry relative="1" as="geometry" />
        </mxCell>
        <mxCell id="kKs4Ao6ciiZ8D5oQtVKW-73" value="yes" style="edgeLabel;html=1;align=center;verticalAlign=middle;resizable=0;points=[];" connectable="0" vertex="1" parent="kKs4Ao6ciiZ8D5oQtVKW-70">
          <mxGeometry x="-0.0769" y="2" relative="1" as="geometry">
            <mxPoint as="offset" />
          </mxGeometry>
        </mxCell>
        <mxCell id="kKs4Ao6ciiZ8D5oQtVKW-93" style="edgeStyle=orthogonalEdgeStyle;rounded=0;orthogonalLoop=1;jettySize=auto;html=1;entryX=0.5;entryY=0;entryDx=0;entryDy=0;entryPerimeter=0;" edge="1" parent="1" source="kKs4Ao6ciiZ8D5oQtVKW-68" target="_NFF_PW5mCd5XyzLn1zu-155">
          <mxGeometry relative="1" as="geometry" />
        </mxCell>
        <mxCell id="kKs4Ao6ciiZ8D5oQtVKW-94" value="No" style="edgeLabel;html=1;align=center;verticalAlign=middle;resizable=0;points=[];" connectable="0" vertex="1" parent="kKs4Ao6ciiZ8D5oQtVKW-93">
          <mxGeometry x="-0.2" y="1" relative="1" as="geometry">
            <mxPoint as="offset" />
          </mxGeometry>
        </mxCell>
        <mxCell id="kKs4Ao6ciiZ8D5oQtVKW-68" value="Is order to fill &lt;br&gt;greater than&lt;br&gt;&amp;nbsp;or equal to &lt;br&gt;matched order to fill?" style="strokeWidth=2;html=1;shape=mxgraph.flowchart.decision;whiteSpace=wrap;" vertex="1" parent="1">
          <mxGeometry x="311" y="-690" width="175" height="200" as="geometry" />
        </mxCell>
        <mxCell id="_NFF_PW5mCd5XyzLn1zu-10" value="No" style="edgeStyle=orthogonalEdgeStyle;rounded=0;orthogonalLoop=1;jettySize=auto;html=1;entryX=0;entryY=0.5;entryDx=0;entryDy=0;entryPerimeter=0;" edge="1" parent="1" source="kKs4Ao6ciiZ8D5oQtVKW-69" target="_NFF_PW5mCd5XyzLn1zu-9">
          <mxGeometry x="-0.6177" relative="1" as="geometry">
            <mxPoint x="1" as="offset" />
          </mxGeometry>
        </mxCell>
        <mxCell id="_NFF_PW5mCd5XyzLn1zu-103" style="edgeStyle=orthogonalEdgeStyle;rounded=0;orthogonalLoop=1;jettySize=auto;html=1;entryX=0;entryY=0.5;entryDx=0;entryDy=0;entryPerimeter=0;exitX=0.5;exitY=1;exitDx=0;exitDy=0;exitPerimeter=0;" edge="1" parent="1" source="kKs4Ao6ciiZ8D5oQtVKW-69" target="_NFF_PW5mCd5XyzLn1zu-106">
          <mxGeometry relative="1" as="geometry">
            <mxPoint x="678.75" y="410" as="sourcePoint" />
            <mxPoint x="796.25" y="880" as="targetPoint" />
          </mxGeometry>
        </mxCell>
        <mxCell id="_NFF_PW5mCd5XyzLn1zu-104" value="Yes" style="edgeLabel;html=1;align=center;verticalAlign=middle;resizable=0;points=[];" connectable="0" vertex="1" parent="_NFF_PW5mCd5XyzLn1zu-103">
          <mxGeometry x="-0.2398" y="-1" relative="1" as="geometry">
            <mxPoint x="1" y="-127" as="offset" />
          </mxGeometry>
        </mxCell>
        <mxCell id="kKs4Ao6ciiZ8D5oQtVKW-69" value="Is order to fill equal&lt;br&gt;&amp;nbsp;to matched &lt;br&gt;order to fill?" style="strokeWidth=2;html=1;shape=mxgraph.flowchart.decision;whiteSpace=wrap;" vertex="1" parent="1">
          <mxGeometry x="581" y="-690" width="180" height="200" as="geometry" />
        </mxCell>
        <mxCell id="XB4P97MYB8RGY4QsBkrF-19" style="edgeStyle=orthogonalEdgeStyle;rounded=0;orthogonalLoop=1;jettySize=auto;html=1;" edge="1" parent="1" source="kKs4Ao6ciiZ8D5oQtVKW-77" target="XB4P97MYB8RGY4QsBkrF-15">
          <mxGeometry relative="1" as="geometry" />
        </mxCell>
        <mxCell id="kKs4Ao6ciiZ8D5oQtVKW-77" value="Remove matched &amp;nbsp;order to fills from pending bet order queue" style="rounded=1;whiteSpace=wrap;html=1;absoluteArcSize=1;arcSize=14;strokeWidth=2;" vertex="1" parent="1">
          <mxGeometry x="1125.4" y="-26.25" width="100" height="190" as="geometry" />
        </mxCell>
        <mxCell id="kKs4Ao6ciiZ8D5oQtVKW-78" value="&lt;span style=&quot;border-color: var(--border-color); font-size: 12.000001px;&quot;&gt;Create matched bet order with matched bet order to fill&#39;s wager amount and bet order to fill&#39;s filled odds&lt;/span&gt;&amp;nbsp;" style="rounded=1;whiteSpace=wrap;html=1;absoluteArcSize=1;arcSize=14;strokeWidth=2;" vertex="1" parent="1">
          <mxGeometry x="1092.27" y="-96.25" width="200" height="70" as="geometry" />
        </mxCell>
        <mxCell id="kKs4Ao6ciiZ8D5oQtVKW-79" value="&lt;br&gt;Pending Bet Order Queue" style="strokeWidth=2;html=1;shape=mxgraph.flowchart.database;whiteSpace=wrap;" vertex="1" parent="1">
          <mxGeometry x="1460.4" y="55" width="130" height="90" as="geometry" />
        </mxCell>
        <mxCell id="_NFF_PW5mCd5XyzLn1zu-142" style="edgeStyle=orthogonalEdgeStyle;rounded=0;orthogonalLoop=1;jettySize=auto;html=1;entryX=0;entryY=0.5;entryDx=0;entryDy=0;entryPerimeter=0;exitX=1;exitY=0.85;exitDx=0;exitDy=0;exitPerimeter=0;" edge="1" parent="1" source="kKs4Ao6ciiZ8D5oQtVKW-80" target="_NFF_PW5mCd5XyzLn1zu-141">
          <mxGeometry relative="1" as="geometry" />
        </mxCell>
        <mxCell id="kKs4Ao6ciiZ8D5oQtVKW-80" value="Matched Bet Order Queue" style="strokeWidth=2;html=1;shape=mxgraph.flowchart.database;whiteSpace=wrap;" vertex="1" parent="1">
          <mxGeometry x="1460.4" y="-5" width="130" height="90" as="geometry" />
        </mxCell>
        <mxCell id="kKs4Ao6ciiZ8D5oQtVKW-82" value="Create new bet order to fill" style="rounded=1;whiteSpace=wrap;html=1;absoluteArcSize=1;arcSize=14;strokeWidth=2;" vertex="1" parent="1">
          <mxGeometry x="1005.4000000000001" y="40" width="120" height="120" as="geometry" />
        </mxCell>
        <mxCell id="kKs4Ao6ciiZ8D5oQtVKW-85" value="&lt;span style=&quot;border-color: var(--border-color); font-size: 12.000001px;&quot;&gt;Create matched order with order to fill&lt;/span&gt;&amp;nbsp;" style="rounded=1;whiteSpace=wrap;html=1;absoluteArcSize=1;arcSize=14;strokeWidth=2;" vertex="1" parent="1">
          <mxGeometry x="249" y="-130" width="100" height="90" as="geometry" />
        </mxCell>
        <mxCell id="kKs4Ao6ciiZ8D5oQtVKW-86" value="Remove matched &amp;nbsp;order to fills from pending policy order queue" style="rounded=1;whiteSpace=wrap;html=1;absoluteArcSize=1;arcSize=14;strokeWidth=2;" vertex="1" parent="1">
          <mxGeometry x="349" y="-130" width="100" height="70" as="geometry" />
        </mxCell>
        <mxCell id="kKs4Ao6ciiZ8D5oQtVKW-87" value="Create new policy order to fill with matched order to fill&amp;nbsp;" style="rounded=1;whiteSpace=wrap;html=1;absoluteArcSize=1;arcSize=14;strokeWidth=2;" vertex="1" parent="1">
          <mxGeometry x="449" y="-130" width="120" height="130" as="geometry" />
        </mxCell>
        <mxCell id="kKs4Ao6ciiZ8D5oQtVKW-88" value="Matched Policy Order Queue" style="strokeWidth=2;html=1;shape=mxgraph.flowchart.database;whiteSpace=wrap;" vertex="1" parent="1">
          <mxGeometry x="336" y="305" width="130" height="90" as="geometry" />
        </mxCell>
        <mxCell id="_NFF_PW5mCd5XyzLn1zu-162" style="edgeStyle=orthogonalEdgeStyle;rounded=0;orthogonalLoop=1;jettySize=auto;html=1;entryX=0.5;entryY=0;entryDx=0;entryDy=0;entryPerimeter=0;" edge="1" parent="1" source="kKs4Ao6ciiZ8D5oQtVKW-89" target="kKs4Ao6ciiZ8D5oQtVKW-90">
          <mxGeometry relative="1" as="geometry" />
        </mxCell>
        <mxCell id="kKs4Ao6ciiZ8D5oQtVKW-89" value="&lt;br&gt;Pending Policy Order Queue" style="strokeWidth=2;html=1;shape=mxgraph.flowchart.database;whiteSpace=wrap;" vertex="1" parent="1">
          <mxGeometry x="206" y="305" width="130" height="90" as="geometry" />
        </mxCell>
        <mxCell id="kKs4Ao6ciiZ8D5oQtVKW-90" value="End" style="strokeWidth=2;html=1;shape=mxgraph.flowchart.terminator;whiteSpace=wrap;" vertex="1" parent="1">
          <mxGeometry x="221" y="430" width="100" height="60" as="geometry" />
        </mxCell>
        <mxCell id="XB4P97MYB8RGY4QsBkrF-2" value="Order to fill" style="shape=parallelogram;html=1;strokeWidth=2;perimeter=parallelogramPerimeter;whiteSpace=wrap;rounded=1;arcSize=12;size=0.23;" vertex="1" parent="1">
          <mxGeometry x="249" y="-795" width="200" height="80" as="geometry" />
        </mxCell>
        <mxCell id="XB4P97MYB8RGY4QsBkrF-7" style="edgeStyle=orthogonalEdgeStyle;rounded=0;orthogonalLoop=1;jettySize=auto;html=1;exitX=0;exitY=1;exitDx=0;exitDy=0;entryX=0.5;entryY=0;entryDx=0;entryDy=0;entryPerimeter=0;" edge="1" parent="1" source="XB4P97MYB8RGY4QsBkrF-4" target="kKs4Ao6ciiZ8D5oQtVKW-68">
          <mxGeometry relative="1" as="geometry" />
        </mxCell>
        <mxCell id="XB4P97MYB8RGY4QsBkrF-4" value="Matched Order" style="shape=parallelogram;html=1;strokeWidth=2;perimeter=parallelogramPerimeter;whiteSpace=wrap;rounded=1;arcSize=12;size=0.23;" vertex="1" parent="1">
          <mxGeometry x="399" y="-800" width="192" height="90" as="geometry" />
        </mxCell>
        <mxCell id="XB4P97MYB8RGY4QsBkrF-14" style="edgeStyle=orthogonalEdgeStyle;rounded=0;orthogonalLoop=1;jettySize=auto;html=1;entryX=0;entryY=0.15;entryDx=0;entryDy=0;entryPerimeter=0;" edge="1" parent="1" source="XB4P97MYB8RGY4QsBkrF-8" target="kKs4Ao6ciiZ8D5oQtVKW-66">
          <mxGeometry relative="1" as="geometry" />
        </mxCell>
        <mxCell id="XB4P97MYB8RGY4QsBkrF-8" value="New policy" style="shape=parallelogram;html=1;strokeWidth=2;perimeter=parallelogramPerimeter;whiteSpace=wrap;rounded=1;arcSize=12;size=0.23;" vertex="1" parent="1">
          <mxGeometry x="1209.63" y="-300" width="170" height="90" as="geometry" />
        </mxCell>
        <mxCell id="XB4P97MYB8RGY4QsBkrF-9" value="Order to fill" style="shape=parallelogram;html=1;strokeWidth=2;perimeter=parallelogramPerimeter;whiteSpace=wrap;rounded=1;arcSize=12;size=0.23;" vertex="1" parent="1">
          <mxGeometry x="1239.63" y="-380" width="160" height="80" as="geometry" />
        </mxCell>
        <mxCell id="XB4P97MYB8RGY4QsBkrF-10" value="Matched&lt;br&gt;&amp;nbsp;order&lt;br&gt;&amp;nbsp;to fill" style="shape=parallelogram;html=1;strokeWidth=2;perimeter=parallelogramPerimeter;whiteSpace=wrap;rounded=1;arcSize=12;size=0.23;" vertex="1" parent="1">
          <mxGeometry x="1279.15" y="105" width="110" height="60" as="geometry" />
        </mxCell>
        <mxCell id="_NFF_PW5mCd5XyzLn1zu-136" style="edgeStyle=orthogonalEdgeStyle;rounded=0;orthogonalLoop=1;jettySize=auto;html=1;entryX=0;entryY=0.15;entryDx=0;entryDy=0;entryPerimeter=0;" edge="1" parent="1" source="XB4P97MYB8RGY4QsBkrF-15" target="kKs4Ao6ciiZ8D5oQtVKW-79">
          <mxGeometry relative="1" as="geometry" />
        </mxCell>
        <mxCell id="XB4P97MYB8RGY4QsBkrF-15" value="New policy" style="shape=parallelogram;html=1;strokeWidth=2;perimeter=parallelogramPerimeter;whiteSpace=wrap;rounded=1;arcSize=12;size=0.23;" vertex="1" parent="1">
          <mxGeometry x="1292.27" y="35" width="118.75" height="70" as="geometry" />
        </mxCell>
        <mxCell id="XB4P97MYB8RGY4QsBkrF-16" value="Order&lt;br&gt;&amp;nbsp;to fill" style="shape=parallelogram;html=1;strokeWidth=2;perimeter=parallelogramPerimeter;whiteSpace=wrap;rounded=1;arcSize=12;size=0.23;" vertex="1" parent="1">
          <mxGeometry x="1326.02" y="-15" width="80" height="50" as="geometry" />
        </mxCell>
        <mxCell id="XB4P97MYB8RGY4QsBkrF-22" value="End" style="strokeWidth=2;html=1;shape=mxgraph.flowchart.terminator;whiteSpace=wrap;" vertex="1" parent="1">
          <mxGeometry x="1624.94" y="-285" width="100" height="60" as="geometry" />
        </mxCell>
        <mxCell id="_NFF_PW5mCd5XyzLn1zu-11" style="edgeStyle=orthogonalEdgeStyle;rounded=0;orthogonalLoop=1;jettySize=auto;html=1;entryX=0;entryY=0.75;entryDx=0;entryDy=0;" edge="1" parent="1" source="_NFF_PW5mCd5XyzLn1zu-9" target="kKs4Ao6ciiZ8D5oQtVKW-65">
          <mxGeometry relative="1" as="geometry">
            <mxPoint x="1037.75" y="480" as="targetPoint" />
            <Array as="points">
              <mxPoint x="880.75" y="-305" />
            </Array>
          </mxGeometry>
        </mxCell>
        <mxCell id="_NFF_PW5mCd5XyzLn1zu-12" value="No" style="edgeLabel;html=1;align=center;verticalAlign=middle;resizable=0;points=[];" connectable="0" vertex="1" parent="_NFF_PW5mCd5XyzLn1zu-11">
          <mxGeometry x="-0.1996" y="1" relative="1" as="geometry">
            <mxPoint as="offset" />
          </mxGeometry>
        </mxCell>
        <mxCell id="_NFF_PW5mCd5XyzLn1zu-39" style="edgeStyle=orthogonalEdgeStyle;rounded=0;orthogonalLoop=1;jettySize=auto;html=1;entryX=0;entryY=0.088;entryDx=0;entryDy=0;entryPerimeter=0;" edge="1" parent="1" source="_NFF_PW5mCd5XyzLn1zu-9" target="_NFF_PW5mCd5XyzLn1zu-38">
          <mxGeometry relative="1" as="geometry" />
        </mxCell>
        <mxCell id="_NFF_PW5mCd5XyzLn1zu-40" value="Yes" style="edgeLabel;html=1;align=center;verticalAlign=middle;resizable=0;points=[];" connectable="0" vertex="1" parent="_NFF_PW5mCd5XyzLn1zu-39">
          <mxGeometry x="0.1536" y="2" relative="1" as="geometry">
            <mxPoint as="offset" />
          </mxGeometry>
        </mxCell>
        <mxCell id="_NFF_PW5mCd5XyzLn1zu-9" value="Is order to fill or&lt;br&gt;&amp;nbsp;matched order&lt;br&gt;&amp;nbsp;to fill replacing&lt;br&gt;&amp;nbsp;a cancelled order?" style="strokeWidth=2;html=1;shape=mxgraph.flowchart.decision;whiteSpace=wrap;" vertex="1" parent="1">
          <mxGeometry x="793.75" y="-690" width="175" height="200" as="geometry" />
        </mxCell>
        <mxCell id="_NFF_PW5mCd5XyzLn1zu-21" value="&lt;br&gt;Pending Policy Order Queue" style="strokeWidth=2;html=1;shape=mxgraph.flowchart.database;whiteSpace=wrap;" vertex="1" parent="1">
          <mxGeometry x="1553.44" y="-590" width="130" height="90" as="geometry" />
        </mxCell>
        <mxCell id="_NFF_PW5mCd5XyzLn1zu-22" style="edgeStyle=orthogonalEdgeStyle;rounded=0;orthogonalLoop=1;jettySize=auto;html=1;exitX=1;exitY=0.85;exitDx=0;exitDy=0;exitPerimeter=0;entryX=0;entryY=0.5;entryDx=0;entryDy=0;entryPerimeter=0;" edge="1" parent="1" source="_NFF_PW5mCd5XyzLn1zu-23" target="_NFF_PW5mCd5XyzLn1zu-28">
          <mxGeometry relative="1" as="geometry" />
        </mxCell>
        <mxCell id="_NFF_PW5mCd5XyzLn1zu-23" value="Matched Policy Order Queue" style="strokeWidth=2;html=1;shape=mxgraph.flowchart.database;whiteSpace=wrap;" vertex="1" parent="1">
          <mxGeometry x="1553.44" y="-650" width="130" height="90" as="geometry" />
        </mxCell>
        <mxCell id="_NFF_PW5mCd5XyzLn1zu-25" value="&lt;span style=&quot;font-size: 12.000001px;&quot;&gt;Order filling&lt;br&gt;&amp;nbsp;cancelled order&lt;/span&gt;" style="shape=parallelogram;html=1;strokeWidth=2;perimeter=parallelogramPerimeter;whiteSpace=wrap;rounded=1;arcSize=12;size=0.23;" vertex="1" parent="1">
          <mxGeometry x="1258.75" y="-710" width="170" height="90" as="geometry" />
        </mxCell>
        <mxCell id="_NFF_PW5mCd5XyzLn1zu-26" value="Existing policy&lt;br&gt;&amp;nbsp;cancelled" style="shape=parallelogram;html=1;strokeWidth=2;perimeter=parallelogramPerimeter;whiteSpace=wrap;rounded=1;arcSize=12;size=0.23;" vertex="1" parent="1">
          <mxGeometry x="1385.63" y="-710" width="148.75" height="90" as="geometry" />
        </mxCell>
        <mxCell id="_NFF_PW5mCd5XyzLn1zu-27" value="Original order&lt;br&gt;&amp;nbsp;to fill being&lt;br&gt;&amp;nbsp;cancelled &lt;br&gt;remaining amount" style="shape=parallelogram;html=1;strokeWidth=2;perimeter=parallelogramPerimeter;whiteSpace=wrap;rounded=1;arcSize=12;size=0.23;" vertex="1" parent="1">
          <mxGeometry x="1188.75" y="-530" width="170" height="92.5" as="geometry" />
        </mxCell>
        <mxCell id="_NFF_PW5mCd5XyzLn1zu-28" value="End" style="strokeWidth=2;html=1;shape=mxgraph.flowchart.terminator;whiteSpace=wrap;" vertex="1" parent="1">
          <mxGeometry x="1723.13" y="-605" width="100" height="60" as="geometry" />
        </mxCell>
        <mxCell id="_NFF_PW5mCd5XyzLn1zu-170" style="edgeStyle=orthogonalEdgeStyle;rounded=0;orthogonalLoop=1;jettySize=auto;html=1;exitX=1;exitY=1;exitDx=0;exitDy=0;entryX=0;entryY=0.5;entryDx=0;entryDy=0;" edge="1" parent="1" source="_NFF_PW5mCd5XyzLn1zu-37" target="_NFF_PW5mCd5XyzLn1zu-45">
          <mxGeometry relative="1" as="geometry" />
        </mxCell>
        <mxCell id="_NFF_PW5mCd5XyzLn1zu-37" value="Remove order to fill and matched order to fill from pending policy order queue" style="rounded=1;whiteSpace=wrap;html=1;absoluteArcSize=1;arcSize=14;strokeWidth=2;" vertex="1" parent="1">
          <mxGeometry x="1058.75" y="-710" width="100" height="110" as="geometry" />
        </mxCell>
        <mxCell id="_NFF_PW5mCd5XyzLn1zu-38" value="&lt;span style=&quot;border-color: var(--border-color); font-size: 12.000001px;&quot;&gt;Replace cancelled side of policy with matched policy order&amp;nbsp;&lt;/span&gt;" style="rounded=1;whiteSpace=wrap;html=1;absoluteArcSize=1;arcSize=14;strokeWidth=2;" vertex="1" parent="1">
          <mxGeometry x="1058.75" y="-600" width="100" height="110" as="geometry" />
        </mxCell>
        <mxCell id="_NFF_PW5mCd5XyzLn1zu-43" value="New Policy &lt;br&gt;between new&lt;br&gt;&amp;nbsp;user filling&lt;br&gt;&amp;nbsp;cancelled policy" style="shape=parallelogram;html=1;strokeWidth=2;perimeter=parallelogramPerimeter;whiteSpace=wrap;rounded=1;arcSize=12;size=0.23;" vertex="1" parent="1">
          <mxGeometry x="1348.13" y="-621.25" width="154.37" height="92.5" as="geometry" />
        </mxCell>
        <mxCell id="_NFF_PW5mCd5XyzLn1zu-45" value="&lt;span style=&quot;font-size: 12.000001px;&quot;&gt;Original order&lt;br&gt;&amp;nbsp;being cancelled&lt;/span&gt;" style="shape=parallelogram;html=1;strokeWidth=2;perimeter=parallelogramPerimeter;whiteSpace=wrap;rounded=1;arcSize=12;size=0.23;" vertex="1" parent="1">
          <mxGeometry x="1223.13" y="-620" width="162.5" height="90" as="geometry" />
        </mxCell>
        <mxCell id="-koNussSvOYieeaLm8qZ-16" style="edgeStyle=orthogonalEdgeStyle;rounded=0;orthogonalLoop=1;jettySize=auto;html=1;exitX=0.5;exitY=1;exitDx=0;exitDy=0;entryX=0;entryY=0.5;entryDx=0;entryDy=0;" edge="1" parent="1" source="_NFF_PW5mCd5XyzLn1zu-94" target="-koNussSvOYieeaLm8qZ-13">
          <mxGeometry relative="1" as="geometry" />
        </mxCell>
        <mxCell id="_NFF_PW5mCd5XyzLn1zu-94" value="change order to fill and matched order to fill statuses" style="rounded=1;whiteSpace=wrap;html=1;absoluteArcSize=1;arcSize=14;strokeWidth=2;" vertex="1" parent="1">
          <mxGeometry x="791" y="203.75" width="100" height="90" as="geometry" />
        </mxCell>
        <mxCell id="_NFF_PW5mCd5XyzLn1zu-95" value="&lt;span style=&quot;border-color: var(--border-color); font-size: 12.000001px;&quot;&gt;Adjust cancelled order to fill&lt;/span&gt;" style="rounded=1;whiteSpace=wrap;html=1;absoluteArcSize=1;arcSize=14;strokeWidth=2;" vertex="1" parent="1">
          <mxGeometry x="691" y="203.75" width="100" height="90" as="geometry" />
        </mxCell>
        <mxCell id="_NFF_PW5mCd5XyzLn1zu-107" style="edgeStyle=orthogonalEdgeStyle;rounded=0;orthogonalLoop=1;jettySize=auto;html=1;entryX=0;entryY=0.25;entryDx=0;entryDy=0;" edge="1" parent="1" source="_NFF_PW5mCd5XyzLn1zu-106" target="kKs4Ao6ciiZ8D5oQtVKW-77">
          <mxGeometry relative="1" as="geometry" />
        </mxCell>
        <mxCell id="_NFF_PW5mCd5XyzLn1zu-108" value="No" style="edgeLabel;html=1;align=center;verticalAlign=middle;resizable=0;points=[];" connectable="0" vertex="1" parent="_NFF_PW5mCd5XyzLn1zu-107">
          <mxGeometry x="-0.1661" y="1" relative="1" as="geometry">
            <mxPoint as="offset" />
          </mxGeometry>
        </mxCell>
        <mxCell id="_NFF_PW5mCd5XyzLn1zu-109" style="edgeStyle=orthogonalEdgeStyle;rounded=0;orthogonalLoop=1;jettySize=auto;html=1;entryX=0;entryY=0;entryDx=0;entryDy=0;" edge="1" parent="1" source="_NFF_PW5mCd5XyzLn1zu-106" target="_NFF_PW5mCd5XyzLn1zu-94">
          <mxGeometry relative="1" as="geometry" />
        </mxCell>
        <mxCell id="_NFF_PW5mCd5XyzLn1zu-126" value="&lt;br&gt;yes" style="edgeLabel;html=1;align=center;verticalAlign=middle;resizable=0;points=[];" connectable="0" vertex="1" parent="_NFF_PW5mCd5XyzLn1zu-109">
          <mxGeometry x="-0.6" y="2" relative="1" as="geometry">
            <mxPoint as="offset" />
          </mxGeometry>
        </mxCell>
        <mxCell id="_NFF_PW5mCd5XyzLn1zu-106" value="Is order to fill or matched order to fill replacing a cancelled order?" style="strokeWidth=2;html=1;shape=mxgraph.flowchart.decision;whiteSpace=wrap;" vertex="1" parent="1">
          <mxGeometry x="704.15" y="-80.25" width="175" height="200" as="geometry" />
        </mxCell>
        <mxCell id="_NFF_PW5mCd5XyzLn1zu-135" style="edgeStyle=orthogonalEdgeStyle;rounded=0;orthogonalLoop=1;jettySize=auto;html=1;entryX=0;entryY=0.15;entryDx=0;entryDy=0;entryPerimeter=0;exitX=1;exitY=0.5;exitDx=0;exitDy=0;" edge="1" parent="1" source="_NFF_PW5mCd5XyzLn1zu-43" target="_NFF_PW5mCd5XyzLn1zu-21">
          <mxGeometry relative="1" as="geometry" />
        </mxCell>
        <mxCell id="_NFF_PW5mCd5XyzLn1zu-118" value="&lt;span style=&quot;font-size: 12.000001px;&quot;&gt;Existing policy amount&lt;br&gt;&amp;nbsp;not cancelled&lt;/span&gt;" style="shape=parallelogram;html=1;strokeWidth=2;perimeter=parallelogramPerimeter;whiteSpace=wrap;rounded=1;arcSize=12;size=0.23;" vertex="1" parent="1">
          <mxGeometry x="1318.75" y="-527.5" width="176.25" height="90" as="geometry" />
        </mxCell>
        <mxCell id="_NFF_PW5mCd5XyzLn1zu-141" value="End" style="strokeWidth=2;html=1;shape=mxgraph.flowchart.terminator;whiteSpace=wrap;" vertex="1" parent="1">
          <mxGeometry x="1633.5300000000002" y="41" width="100" height="60" as="geometry" />
        </mxCell>
        <mxCell id="_NFF_PW5mCd5XyzLn1zu-144" value="&lt;span style=&quot;border-color: var(--border-color); font-size: 12.000001px;&quot;&gt;Create matched policy order with matched order to fill and order to fill&lt;/span&gt;&amp;nbsp;" style="rounded=1;whiteSpace=wrap;html=1;absoluteArcSize=1;arcSize=14;strokeWidth=2;" vertex="1" parent="1">
          <mxGeometry x="591" y="203.75" width="100" height="80" as="geometry" />
        </mxCell>
        <mxCell id="_NFF_PW5mCd5XyzLn1zu-145" value="&lt;span style=&quot;border-color: var(--border-color); font-size: 12.000001px;&quot;&gt;Return portion of cancelled policy to user&#39;s account from escrow&lt;/span&gt;" style="rounded=1;whiteSpace=wrap;html=1;absoluteArcSize=1;arcSize=14;strokeWidth=2;" vertex="1" parent="1">
          <mxGeometry x="893.5000000000001" y="203.75" width="100" height="90" as="geometry" />
        </mxCell>
        <mxCell id="_NFF_PW5mCd5XyzLn1zu-146" value="&lt;br&gt;Pending Bet Order Queue" style="strokeWidth=2;html=1;shape=mxgraph.flowchart.database;whiteSpace=wrap;" vertex="1" parent="1">
          <mxGeometry x="-675" y="1860" width="130" height="90" as="geometry" />
        </mxCell>
        <mxCell id="_NFF_PW5mCd5XyzLn1zu-169" style="edgeStyle=orthogonalEdgeStyle;rounded=0;orthogonalLoop=1;jettySize=auto;html=1;entryX=0.5;entryY=0;entryDx=0;entryDy=0;entryPerimeter=0;" edge="1" parent="1" source="_NFF_PW5mCd5XyzLn1zu-147" target="_NFF_PW5mCd5XyzLn1zu-159">
          <mxGeometry relative="1" as="geometry" />
        </mxCell>
        <mxCell id="_NFF_PW5mCd5XyzLn1zu-147" value="Matched Bet Order Queue" style="strokeWidth=2;html=1;shape=mxgraph.flowchart.database;whiteSpace=wrap;" vertex="1" parent="1">
          <mxGeometry x="-805" y="1860" width="130" height="90" as="geometry" />
        </mxCell>
        <mxCell id="_NFF_PW5mCd5XyzLn1zu-163" style="edgeStyle=orthogonalEdgeStyle;rounded=0;orthogonalLoop=1;jettySize=auto;html=1;entryX=0.5;entryY=0;entryDx=0;entryDy=0;entryPerimeter=0;" edge="1" parent="1" target="_NFF_PW5mCd5XyzLn1zu-147">
          <mxGeometry relative="1" as="geometry">
            <mxPoint x="-740" y="1641.25" as="sourcePoint" />
          </mxGeometry>
        </mxCell>
        <mxCell id="_NFF_PW5mCd5XyzLn1zu-151" value="change order to fill and matched order to fill statuses" style="rounded=1;whiteSpace=wrap;html=1;absoluteArcSize=1;arcSize=14;strokeWidth=2;" vertex="1" parent="1">
          <mxGeometry x="42.81000000000006" y="-345" width="100" height="90" as="geometry" />
        </mxCell>
        <mxCell id="_NFF_PW5mCd5XyzLn1zu-152" value="&lt;span style=&quot;border-color: var(--border-color); font-size: 12.000001px;&quot;&gt;Adjust cancelled policy&lt;/span&gt;" style="rounded=1;whiteSpace=wrap;html=1;absoluteArcSize=1;arcSize=14;strokeWidth=2;" vertex="1" parent="1">
          <mxGeometry x="-57.18999999999994" y="-345" width="100" height="80" as="geometry" />
        </mxCell>
        <mxCell id="_NFF_PW5mCd5XyzLn1zu-164" style="edgeStyle=orthogonalEdgeStyle;rounded=0;orthogonalLoop=1;jettySize=auto;html=1;entryX=1;entryY=0.5;entryDx=0;entryDy=0;" edge="1" parent="1" source="_NFF_PW5mCd5XyzLn1zu-155" target="_NFF_PW5mCd5XyzLn1zu-161">
          <mxGeometry relative="1" as="geometry" />
        </mxCell>
        <mxCell id="_NFF_PW5mCd5XyzLn1zu-167" value="Yes" style="edgeLabel;html=1;align=center;verticalAlign=middle;resizable=0;points=[];" connectable="0" vertex="1" parent="_NFF_PW5mCd5XyzLn1zu-164">
          <mxGeometry x="-0.5709" y="-3" relative="1" as="geometry">
            <mxPoint x="1" y="3" as="offset" />
          </mxGeometry>
        </mxCell>
        <mxCell id="_NFF_PW5mCd5XyzLn1zu-165" style="edgeStyle=orthogonalEdgeStyle;rounded=0;orthogonalLoop=1;jettySize=auto;html=1;" edge="1" parent="1" source="_NFF_PW5mCd5XyzLn1zu-155" target="kKs4Ao6ciiZ8D5oQtVKW-86">
          <mxGeometry relative="1" as="geometry" />
        </mxCell>
        <mxCell id="_NFF_PW5mCd5XyzLn1zu-166" value="No" style="edgeLabel;html=1;align=center;verticalAlign=middle;resizable=0;points=[];" connectable="0" vertex="1" parent="_NFF_PW5mCd5XyzLn1zu-165">
          <mxGeometry x="-0.3998" y="-3" relative="1" as="geometry">
            <mxPoint x="3" as="offset" />
          </mxGeometry>
        </mxCell>
        <mxCell id="_NFF_PW5mCd5XyzLn1zu-155" value="Is order to fill or matched order to fill replacing a cancelled order?" style="strokeWidth=2;html=1;shape=mxgraph.flowchart.decision;whiteSpace=wrap;" vertex="1" parent="1">
          <mxGeometry x="310" y="-400" width="175" height="200" as="geometry" />
        </mxCell>
        <mxCell id="_NFF_PW5mCd5XyzLn1zu-159" value="End" style="strokeWidth=2;html=1;shape=mxgraph.flowchart.terminator;whiteSpace=wrap;" vertex="1" parent="1">
          <mxGeometry x="-790" y="1995" width="100" height="60" as="geometry" />
        </mxCell>
        <mxCell id="_NFF_PW5mCd5XyzLn1zu-160" value="&lt;span style=&quot;border-color: var(--border-color); font-size: 12.000001px;&quot;&gt;Create matched policy order with matched policy order to fill&lt;/span&gt;&amp;nbsp;" style="rounded=1;whiteSpace=wrap;html=1;absoluteArcSize=1;arcSize=14;strokeWidth=2;" vertex="1" parent="1">
          <mxGeometry x="-157.18999999999994" y="-345" width="100" height="80" as="geometry" />
        </mxCell>
        <mxCell id="_NFF_PW5mCd5XyzLn1zu-161" value="&lt;span style=&quot;border-color: var(--border-color); font-size: 12.000001px;&quot;&gt;Return portion of cancelled bet to user&#39;s account&lt;/span&gt;" style="rounded=1;whiteSpace=wrap;html=1;absoluteArcSize=1;arcSize=14;strokeWidth=2;" vertex="1" parent="1">
          <mxGeometry x="145.31000000000006" y="-342" width="100" height="87" as="geometry" />
        </mxCell>
        <mxCell id="-koNussSvOYieeaLm8qZ-2" value="Matched order to fill" style="shape=parallelogram;html=1;strokeWidth=2;perimeter=parallelogramPerimeter;whiteSpace=wrap;rounded=1;arcSize=12;size=0.23;" vertex="1" parent="1">
          <mxGeometry x="1184.94" y="-210" width="160" height="80" as="geometry" />
        </mxCell>
        <mxCell id="-koNussSvOYieeaLm8qZ-3" value="New order to fill" style="shape=parallelogram;html=1;strokeWidth=2;perimeter=parallelogramPerimeter;whiteSpace=wrap;rounded=1;arcSize=12;size=0.23;" vertex="1" parent="1">
          <mxGeometry x="1124.94" y="-380" width="160" height="80" as="geometry" />
        </mxCell>
        <mxCell id="-koNussSvOYieeaLm8qZ-5" value="&lt;br&gt;Pending Policy Order Queue" style="strokeWidth=2;html=1;shape=mxgraph.flowchart.database;whiteSpace=wrap;" vertex="1" parent="1">
          <mxGeometry x="1498.19" y="323.75" width="130" height="90" as="geometry" />
        </mxCell>
        <mxCell id="-koNussSvOYieeaLm8qZ-6" style="edgeStyle=orthogonalEdgeStyle;rounded=0;orthogonalLoop=1;jettySize=auto;html=1;exitX=1;exitY=0.85;exitDx=0;exitDy=0;exitPerimeter=0;entryX=0;entryY=0.5;entryDx=0;entryDy=0;entryPerimeter=0;" edge="1" parent="1" source="-koNussSvOYieeaLm8qZ-7" target="-koNussSvOYieeaLm8qZ-11">
          <mxGeometry relative="1" as="geometry" />
        </mxCell>
        <mxCell id="-koNussSvOYieeaLm8qZ-7" value="Matched Policy Order Queue" style="strokeWidth=2;html=1;shape=mxgraph.flowchart.database;whiteSpace=wrap;" vertex="1" parent="1">
          <mxGeometry x="1498.19" y="263.75" width="130" height="90" as="geometry" />
        </mxCell>
        <mxCell id="-koNussSvOYieeaLm8qZ-8" value="&lt;span style=&quot;font-size: 12.000001px;&quot;&gt;Order filling&lt;br&gt;&amp;nbsp;cancelled order&lt;/span&gt;" style="shape=parallelogram;html=1;strokeWidth=2;perimeter=parallelogramPerimeter;whiteSpace=wrap;rounded=1;arcSize=12;size=0.23;" vertex="1" parent="1">
          <mxGeometry x="1118.19" y="203.75" width="170" height="90" as="geometry" />
        </mxCell>
        <mxCell id="-koNussSvOYieeaLm8qZ-9" value="Existing policy&lt;br&gt;&amp;nbsp;cancelled" style="shape=parallelogram;html=1;strokeWidth=2;perimeter=parallelogramPerimeter;whiteSpace=wrap;rounded=1;arcSize=12;size=0.23;" vertex="1" parent="1">
          <mxGeometry x="1245.0700000000002" y="203.75" width="148.75" height="90" as="geometry" />
        </mxCell>
        <mxCell id="-koNussSvOYieeaLm8qZ-10" value="Original order&lt;br&gt;&amp;nbsp;to fill being&lt;br&gt;&amp;nbsp;cancelled &lt;br&gt;remaining amount" style="shape=parallelogram;html=1;strokeWidth=2;perimeter=parallelogramPerimeter;whiteSpace=wrap;rounded=1;arcSize=12;size=0.23;" vertex="1" parent="1">
          <mxGeometry x="1048.19" y="383.75" width="170" height="92.5" as="geometry" />
        </mxCell>
        <mxCell id="-koNussSvOYieeaLm8qZ-11" value="End" style="strokeWidth=2;html=1;shape=mxgraph.flowchart.terminator;whiteSpace=wrap;" vertex="1" parent="1">
          <mxGeometry x="1650" y="308.75" width="100" height="60" as="geometry" />
        </mxCell>
        <mxCell id="-koNussSvOYieeaLm8qZ-12" value="New Policy &lt;br&gt;between new&lt;br&gt;&amp;nbsp;user filling&lt;br&gt;&amp;nbsp;cancelled policy" style="shape=parallelogram;html=1;strokeWidth=2;perimeter=parallelogramPerimeter;whiteSpace=wrap;rounded=1;arcSize=12;size=0.23;" vertex="1" parent="1">
          <mxGeometry x="1207.5700000000002" y="292.5" width="154.37" height="92.5" as="geometry" />
        </mxCell>
        <mxCell id="-koNussSvOYieeaLm8qZ-13" value="&lt;span style=&quot;font-size: 12.000001px;&quot;&gt;Original order&lt;br&gt;&amp;nbsp;being cancelled&lt;/span&gt;" style="shape=parallelogram;html=1;strokeWidth=2;perimeter=parallelogramPerimeter;whiteSpace=wrap;rounded=1;arcSize=12;size=0.23;" vertex="1" parent="1">
          <mxGeometry x="1082.5700000000002" y="293.75" width="162.5" height="90" as="geometry" />
        </mxCell>
        <mxCell id="-koNussSvOYieeaLm8qZ-14" style="edgeStyle=orthogonalEdgeStyle;rounded=0;orthogonalLoop=1;jettySize=auto;html=1;entryX=0;entryY=0.15;entryDx=0;entryDy=0;entryPerimeter=0;exitX=1;exitY=0.5;exitDx=0;exitDy=0;" edge="1" parent="1" source="-koNussSvOYieeaLm8qZ-12" target="-koNussSvOYieeaLm8qZ-5">
          <mxGeometry relative="1" as="geometry" />
        </mxCell>
        <mxCell id="-koNussSvOYieeaLm8qZ-17" value="New policy" style="shape=parallelogram;html=1;strokeWidth=2;perimeter=parallelogramPerimeter;whiteSpace=wrap;rounded=1;arcSize=12;size=0.23;" vertex="1" parent="1">
          <mxGeometry x="344.84000000000003" y="100" width="170" height="90" as="geometry" />
        </mxCell>
        <mxCell id="-koNussSvOYieeaLm8qZ-18" value="Order to fill" style="shape=parallelogram;html=1;strokeWidth=2;perimeter=parallelogramPerimeter;whiteSpace=wrap;rounded=1;arcSize=12;size=0.23;" vertex="1" parent="1">
          <mxGeometry x="374.84000000000003" y="20" width="160" height="80" as="geometry" />
        </mxCell>
        <mxCell id="-koNussSvOYieeaLm8qZ-23" style="edgeStyle=orthogonalEdgeStyle;rounded=0;orthogonalLoop=1;jettySize=auto;html=1;exitX=0.5;exitY=1;exitDx=0;exitDy=0;" edge="1" parent="1" source="-koNussSvOYieeaLm8qZ-19" target="kKs4Ao6ciiZ8D5oQtVKW-88">
          <mxGeometry relative="1" as="geometry" />
        </mxCell>
        <mxCell id="-koNussSvOYieeaLm8qZ-19" value="Matched order to fill" style="shape=parallelogram;html=1;strokeWidth=2;perimeter=parallelogramPerimeter;whiteSpace=wrap;rounded=1;arcSize=12;size=0.23;" vertex="1" parent="1">
          <mxGeometry x="320.15" y="190" width="160" height="80" as="geometry" />
        </mxCell>
        <mxCell id="-koNussSvOYieeaLm8qZ-20" value="New order&lt;br&gt;&amp;nbsp;to fill from remaining&lt;br&gt;&amp;nbsp;matched order" style="shape=parallelogram;html=1;strokeWidth=2;perimeter=parallelogramPerimeter;whiteSpace=wrap;rounded=1;arcSize=12;size=0.23;" vertex="1" parent="1">
          <mxGeometry x="260.15" y="20" width="160" height="80" as="geometry" />
        </mxCell>
        <mxCell id="-koNussSvOYieeaLm8qZ-24" style="edgeStyle=orthogonalEdgeStyle;rounded=0;orthogonalLoop=1;jettySize=auto;html=1;exitX=0.5;exitY=1;exitDx=0;exitDy=0;entryX=0.865;entryY=-0.015;entryDx=0;entryDy=0;entryPerimeter=0;" edge="1" parent="1" source="kKs4Ao6ciiZ8D5oQtVKW-86" target="-koNussSvOYieeaLm8qZ-20">
          <mxGeometry relative="1" as="geometry" />
        </mxCell>
        <mxCell id="-koNussSvOYieeaLm8qZ-25" value="&lt;span style=&quot;font-size: 12.000001px;&quot;&gt;Order filling&lt;br&gt;&amp;nbsp;cancelled order&lt;/span&gt;" style="shape=parallelogram;html=1;strokeWidth=2;perimeter=parallelogramPerimeter;whiteSpace=wrap;rounded=1;arcSize=12;size=0.23;" vertex="1" parent="1">
          <mxGeometry x="-110.00000000000011" y="-186.25" width="170" height="90" as="geometry" />
        </mxCell>
        <mxCell id="-koNussSvOYieeaLm8qZ-26" value="Existing policy&lt;br&gt;&amp;nbsp;cancelled" style="shape=parallelogram;html=1;strokeWidth=2;perimeter=parallelogramPerimeter;whiteSpace=wrap;rounded=1;arcSize=12;size=0.23;" vertex="1" parent="1">
          <mxGeometry x="16.88000000000001" y="-186.25" width="148.75" height="90" as="geometry" />
        </mxCell>
        <mxCell id="-koNussSvOYieeaLm8qZ-27" value="Matched order&lt;br&gt;&amp;nbsp;to fill&lt;br&gt;remaining amount" style="shape=parallelogram;html=1;strokeWidth=2;perimeter=parallelogramPerimeter;whiteSpace=wrap;rounded=1;arcSize=12;size=0.23;" vertex="1" parent="1">
          <mxGeometry x="-180.0000000000001" y="-6.25" width="170" height="92.5" as="geometry" />
        </mxCell>
        <mxCell id="-koNussSvOYieeaLm8qZ-28" value="New Policy &lt;br&gt;between new&lt;br&gt;&amp;nbsp;user filling&lt;br&gt;&amp;nbsp;cancelled policy" style="shape=parallelogram;html=1;strokeWidth=2;perimeter=parallelogramPerimeter;whiteSpace=wrap;rounded=1;arcSize=12;size=0.23;" vertex="1" parent="1">
          <mxGeometry x="-20.620000000000005" y="-97.5" width="154.37" height="92.5" as="geometry" />
        </mxCell>
        <mxCell id="-koNussSvOYieeaLm8qZ-29" value="&lt;span style=&quot;font-size: 12.000001px;&quot;&gt;Original order&lt;br&gt;&amp;nbsp;being cancelled&lt;/span&gt;" style="shape=parallelogram;html=1;strokeWidth=2;perimeter=parallelogramPerimeter;whiteSpace=wrap;rounded=1;arcSize=12;size=0.23;" vertex="1" parent="1">
          <mxGeometry x="-145.62" y="-96.25" width="162.5" height="90" as="geometry" />
        </mxCell>
        <mxCell id="-koNussSvOYieeaLm8qZ-31" style="edgeStyle=orthogonalEdgeStyle;rounded=0;orthogonalLoop=1;jettySize=auto;html=1;exitX=0.5;exitY=1;exitDx=0;exitDy=0;exitPerimeter=0;entryX=0.855;entryY=0.038;entryDx=0;entryDy=0;entryPerimeter=0;" edge="1" parent="1" source="kKs4Ao6ciiZ8D5oQtVKW-15" target="XB4P97MYB8RGY4QsBkrF-2">
          <mxGeometry relative="1" as="geometry" />
        </mxCell>
        <mxCell id="-koNussSvOYieeaLm8qZ-32" style="edgeStyle=orthogonalEdgeStyle;rounded=0;orthogonalLoop=1;jettySize=auto;html=1;exitX=0.25;exitY=1;exitDx=0;exitDy=0;entryX=0.344;entryY=-0.019;entryDx=0;entryDy=0;entryPerimeter=0;" edge="1" parent="1" source="_NFF_PW5mCd5XyzLn1zu-151" target="-koNussSvOYieeaLm8qZ-26">
          <mxGeometry relative="1" as="geometry" />
        </mxCell>
      </root>
    </mxGraphModel>
  </diagram>
</mxfile>
